  0
SECTION
  2
HEADER
  9
$ACADVER
  1
AC1009
  9
$INSUNITS
  70
4
  9
$EXTMIN
  10
-9.52
  20
-10.5
  9
$EXTMAX
  10
8.9
  20
13.09
  0
ENDSEC
  0
SECTION
  2
TABLES
  0
TABLE
  2
LTYPE
  70
1
  0
LTYPE
  2
CONTINUOUS
  70
64
  3
Solid line
  72
65
  73
0
  40
0
  0
ENDTAB
  0
TABLE
  2
LAYER
  70
3
  0
LAYER
  2
Default
  70
0
  62
1
  6
CONTINUOUS
  0
LAYER
  2
F.Courtyard
  70
0
  62
3
  6
CONTINUOUS
  0
LAYER
  2
F.Cu
  70
0
  62
216
  6
CONTINUOUS
  0
ENDTAB
  0
ENDSEC
  0
SECTION
  2
BLOCKS
  0
BLOCK
  2
SMTgqm15
  3
SMTgqm15
  10
0
  20
0
  70
0
  0
POLYLINE
  8
F.Courtyard
  70
1
  66
1
  0
VERTEX
  8
F.Courtyard
  10
0
  20
0
  0
VERTEX
  8
F.Courtyard
  10
1
  20
0
  0
VERTEX
  8
F.Courtyard
  10
1
  20
0.5
  0
VERTEX
  8
F.Courtyard
  10
0
  20
0.5
  0
VERTEX
  8
F.Courtyard
  10
0
  20
0
  0
SEQEND
  0
ENDBLK
  0
BLOCK
  2
0402
  3
0402
  10
0
  20
0
  70
0
  0
POLYLINE
  8
F.Courtyard
  70
1
  66
1
  0
VERTEX
  8
F.Courtyard
  10
0
  20
0
  0
VERTEX
  8
F.Courtyard
  10
1
  20
0
  0
VERTEX
  8
F.Courtyard
  10
1
  20
0.5
  0
VERTEX
  8
F.Courtyard
  10
0
  20
0.5
  0
VERTEX
  8
F.Courtyard
  10
0
  20
0
  0
SEQEND
  0
ENDBLK
  0
BLOCK
  2
0603
  3
0603
  10
0
  20
0
  70
0
  0
POLYLINE
  8
F.Courtyard
  70
1
  66
1
  0
VERTEX
  8
F.Courtyard
  10
0
  20
0
  0
VERTEX
  8
F.Courtyard
  10
1.6
  20
0
  0
VERTEX
  8
F.Courtyard
  10
1.6
  20
0.8
  0
VERTEX
  8
F.Courtyard
  10
0
  20
0.8
  0
VERTEX
  8
F.Courtyard
  10
0
  20
0
  0
SEQEND
  0
ENDBLK
  0
BLOCK
  2
Wolfspeed_Flange
  3
Wolfspeed_Flange
  10
0
  20
0
  70
0
  0
POLYLINE
  8
F.Courtyard
  70
1
  66
1
  0
VERTEX
  8
F.Courtyard
  10
0.8
  20
4.02
  0
VERTEX
  8
F.Courtyard
  10
0.4
  20
4.02
  0
VERTEX
  8
F.Courtyard
  10
-0.7
  20
2.92
  0
VERTEX
  8
F.Courtyard
  10
-0.7
  20
2.02
  0
VERTEX
  8
F.Courtyard
  10
-7.02
  20
2.02
  0
VERTEX
  8
F.Courtyard
  10
-7.02
  20
-2.28
  0
VERTEX
  8
F.Courtyard
  10
-0.7
  20
-2.28
  0
VERTEX
  8
F.Courtyard
  10
-0.7
  20
-4.28
  0
VERTEX
  8
F.Courtyard
  10
0.8
  20
-4.28
  0
VERTEX
  8
F.Courtyard
  10
0.8
  20
-2.28
  0
VERTEX
  8
F.Courtyard
  10
7.12
  20
-2.28
  0
VERTEX
  8
F.Courtyard
  10
7.12
  20
2.02
  0
VERTEX
  8
F.Courtyard
  10
0.8
  20
2.02
  0
VERTEX
  8
F.Courtyard
  10
0.8
  20
4.02
  0
SEQEND
  0
ENDBLK
  0
BLOCK
  2
SMTgqm21
  3
SMTgqm21
  10
0
  20
0
  70
0
  0
POLYLINE
  8
F.Courtyard
  70
1
  66
1
  0
VERTEX
  8
F.Courtyard
  10
0
  20
0
  0
VERTEX
  8
F.Courtyard
  10
2
  20
0
  0
VERTEX
  8
F.Courtyard
  10
2
  20
1.25
  0
VERTEX
  8
F.Courtyard
  10
0
  20
1.25
  0
VERTEX
  8
F.Courtyard
  10
0
  20
0
  0
SEQEND
  0
ENDBLK
  0
BLOCK
  2
SMTgqm18
  3
SMTgqm18
  10
0
  20
0
  70
0
  0
POLYLINE
  8
F.Courtyard
  70
1
  66
1
  0
VERTEX
  8
F.Courtyard
  10
0
  20
0
  0
VERTEX
  8
F.Courtyard
  10
1.6
  20
0
  0
VERTEX
  8
F.Courtyard
  10
1.6
  20
0.8
  0
VERTEX
  8
F.Courtyard
  10
0
  20
0.8
  0
VERTEX
  8
F.Courtyard
  10
0
  20
0
  0
SEQEND
  0
ENDBLK
  0
BLOCK
  2
Out_Match
  3
Out_Match
  10
0
  20
0
  70
0
  0
INSERT
  8
Default
  2
SMTgqm21
  10
2.1
  20
0.375
  50
0
  41
1
  42
1
  0
INSERT
  8
Default
  2
SMTgqm18
  10
6.65
  20
1
  50
90
  41
1
  42
1
  0
POLYLINE
  8
F.Cu
  70
1
  66
1
  0
VERTEX
  8
F.Cu
  10
-1.6
  20
0
  0
VERTEX
  8
F.Cu
  10
0.4
  20
0
  0
VERTEX
  8
F.Cu
  10
0.4
  20
2
  0
VERTEX
  8
F.Cu
  10
-1.6
  20
2
  0
SEQEND
  0
POLYLINE
  8
F.Cu
  70
1
  66
1
  0
VERTEX
  8
F.Cu
  10
0.4
  20
-9
  0
VERTEX
  8
F.Cu
  10
0.4
  20
-10.5
  0
VERTEX
  8
F.Cu
  10
1
  20
-10.5
  0
VERTEX
  8
F.Cu
  10
1
  20
-9
  0
SEQEND
  0
POLYLINE
  8
F.Cu
  70
1
  66
1
  0
VERTEX
  8
F.Cu
  10
1.5
  20
0.25
  0
VERTEX
  8
F.Cu
  10
2.5
  20
0.25
  0
VERTEX
  8
F.Cu
  10
2.5
  20
1.75
  0
VERTEX
  8
F.Cu
  10
1.5
  20
1.75
  0
SEQEND
  0
POLYLINE
  8
F.Cu
  70
1
  66
1
  0
VERTEX
  8
F.Cu
  10
3.7
  20
0.25
  0
VERTEX
  8
F.Cu
  10
4.7
  20
0.25
  0
VERTEX
  8
F.Cu
  10
4.7
  20
1.75
  0
VERTEX
  8
F.Cu
  10
3.7
  20
1.75
  0
SEQEND
  0
POLYLINE
  8
F.Cu
  70
1
  66
1
  0
VERTEX
  8
F.Cu
  10
1
  20
0
  0
VERTEX
  8
F.Cu
  10
1.5
  20
0
  0
VERTEX
  8
F.Cu
  10
1.5
  20
2
  0
VERTEX
  8
F.Cu
  10
1
  20
2
  0
SEQEND
  0
POLYLINE
  8
F.Cu
  70
1
  66
1
  0
VERTEX
  8
F.Cu
  10
6.9
  20
1.3
  0
VERTEX
  8
F.Cu
  10
6.9
  20
0.7
  0
VERTEX
  8
F.Cu
  10
5.6
  20
0.7
  0
VERTEX
  8
F.Cu
  10
5.6
  20
1.3
  0
SEQEND
  0
POLYLINE
  8
F.Cu
  70
1
  66
1
  0
VERTEX
  8
F.Cu
  10
6.9
  20
0.7
  0
VERTEX
  8
F.Cu
  10
8.9
  20
0.7
  0
VERTEX
  8
F.Cu
  10
8.9
  20
1.3
  0
VERTEX
  8
F.Cu
  10
6.9
  20
1.3
  0
SEQEND
  0
POLYLINE
  8
F.Cu
  70
1
  66
1
  0
VERTEX
  8
F.Cu
  10
0.4
  20
2
  0
VERTEX
  8
F.Cu
  10
1
  20
2
  0
VERTEX
  8
F.Cu
  10
1
  20
0
  0
VERTEX
  8
F.Cu
  10
0.4
  20
0
  0
SEQEND
  0
POLYLINE
  8
F.Cu
  70
1
  66
1
  0
VERTEX
  8
F.Cu
  10
1
  20
2
  0
VERTEX
  8
F.Cu
  10
1
  20
6.4
  0
VERTEX
  8
F.Cu
  10
0.4
  20
6.4
  0
VERTEX
  8
F.Cu
  10
0.4
  20
2
  0
SEQEND
  0
POLYLINE
  8
F.Cu
  70
1
  66
1
  0
VERTEX
  8
F.Cu
  10
4.7
  20
0.7
  0
VERTEX
  8
F.Cu
  10
5.6
  20
0.7
  0
VERTEX
  8
F.Cu
  10
5.6
  20
1.3
  0
VERTEX
  8
F.Cu
  10
4.7
  20
1.3
  0
SEQEND
  0
POLYLINE
  8
F.Cu
  70
1
  66
1
  0
VERTEX
  8
F.Cu
  10
0.4
  20
0
  0
VERTEX
  8
F.Cu
  10
0.4
  20
-1
  0
VERTEX
  8
F.Cu
  10
1
  20
-1
  0
VERTEX
  8
F.Cu
  10
1
  20
0
  0
SEQEND
  0
POLYLINE
  8
F.Cu
  70
1
  66
1
  0
VERTEX
  8
F.Cu
  10
2.7
  20
-2.7
  0
VERTEX
  8
F.Cu
  10
2.543
  20
-2.693
  0
VERTEX
  8
F.Cu
  10
2.388
  20
-2.671
  0
VERTEX
  8
F.Cu
  10
2.235
  20
-2.635
  0
VERTEX
  8
F.Cu
  10
2.086
  20
-2.585
  0
VERTEX
  8
F.Cu
  10
1.942
  20
-2.522
  0
VERTEX
  8
F.Cu
  10
1.805
  20
-2.445
  0
VERTEX
  8
F.Cu
  10
1.676
  20
-2.357
  0
VERTEX
  8
F.Cu
  10
1.555
  20
-2.256
  0
VERTEX
  8
F.Cu
  10
1.444
  20
-2.145
  0
VERTEX
  8
F.Cu
  10
1.343
  20
-2.024
  0
VERTEX
  8
F.Cu
  10
1.255
  20
-1.895
  0
VERTEX
  8
F.Cu
  10
1.178
  20
-1.758
  0
VERTEX
  8
F.Cu
  10
1.115
  20
-1.614
  0
VERTEX
  8
F.Cu
  10
1.065
  20
-1.465
  0
VERTEX
  8
F.Cu
  10
1.029
  20
-1.312
  0
VERTEX
  8
F.Cu
  10
1.007
  20
-1.157
  0
VERTEX
  8
F.Cu
  10
1
  20
-1
  0
VERTEX
  8
F.Cu
  10
0.4
  20
-1
  0
VERTEX
  8
F.Cu
  10
0.41
  20
-1.212
  0
VERTEX
  8
F.Cu
  10
0.439
  20
-1.423
  0
VERTEX
  8
F.Cu
  10
0.488
  20
-1.629
  0
VERTEX
  8
F.Cu
  10
0.555
  20
-1.831
  0
VERTEX
  8
F.Cu
  10
0.641
  20
-2.025
  0
VERTEX
  8
F.Cu
  10
0.745
  20
-2.211
  0
VERTEX
  8
F.Cu
  10
0.865
  20
-2.386
  0
VERTEX
  8
F.Cu
  10
1
  20
-2.549
  0
VERTEX
  8
F.Cu
  10
1.151
  20
-2.7
  0
VERTEX
  8
F.Cu
  10
1.314
  20
-2.835
  0
VERTEX
  8
F.Cu
  10
1.489
  20
-2.955
  0
VERTEX
  8
F.Cu
  10
1.675
  20
-3.059
  0
VERTEX
  8
F.Cu
  10
1.869
  20
-3.145
  0
VERTEX
  8
F.Cu
  10
2.071
  20
-3.212
  0
VERTEX
  8
F.Cu
  10
2.277
  20
-3.261
  0
VERTEX
  8
F.Cu
  10
2.488
  20
-3.29
  0
VERTEX
  8
F.Cu
  10
2.7
  20
-3.3
  0
SEQEND
  0
POLYLINE
  8
F.Cu
  70
1
  66
1
  0
VERTEX
  8
F.Cu
  10
3.7
  20
-2.7
  0
VERTEX
  8
F.Cu
  10
2.7
  20
-2.7
  0
VERTEX
  8
F.Cu
  10
2.7
  20
-3.3
  0
VERTEX
  8
F.Cu
  10
3.7
  20
-3.3
  0
SEQEND
  0
POLYLINE
  8
F.Cu
  70
1
  66
1
  0
VERTEX
  8
F.Cu
  10
3.7
  20
-3.3
  0
VERTEX
  8
F.Cu
  10
3.857
  20
-3.307
  0
VERTEX
  8
F.Cu
  10
4.012
  20
-3.329
  0
VERTEX
  8
F.Cu
  10
4.165
  20
-3.365
  0
VERTEX
  8
F.Cu
  10
4.314
  20
-3.415
  0
VERTEX
  8
F.Cu
  10
4.458
  20
-3.478
  0
VERTEX
  8
F.Cu
  10
4.595
  20
-3.555
  0
VERTEX
  8
F.Cu
  10
4.724
  20
-3.643
  0
VERTEX
  8
F.Cu
  10
4.845
  20
-3.744
  0
VERTEX
  8
F.Cu
  10
4.956
  20
-3.855
  0
VERTEX
  8
F.Cu
  10
5.057
  20
-3.976
  0
VERTEX
  8
F.Cu
  10
5.145
  20
-4.105
  0
VERTEX
  8
F.Cu
  10
5.222
  20
-4.242
  0
VERTEX
  8
F.Cu
  10
5.285
  20
-4.386
  0
VERTEX
  8
F.Cu
  10
5.335
  20
-4.535
  0
VERTEX
  8
F.Cu
  10
5.371
  20
-4.688
  0
VERTEX
  8
F.Cu
  10
5.393
  20
-4.843
  0
VERTEX
  8
F.Cu
  10
5.4
  20
-5
  0
VERTEX
  8
F.Cu
  10
6
  20
-5
  0
VERTEX
  8
F.Cu
  10
5.99
  20
-4.788
  0
VERTEX
  8
F.Cu
  10
5.961
  20
-4.577
  0
VERTEX
  8
F.Cu
  10
5.912
  20
-4.371
  0
VERTEX
  8
F.Cu
  10
5.845
  20
-4.169
  0
VERTEX
  8
F.Cu
  10
5.759
  20
-3.975
  0
VERTEX
  8
F.Cu
  10
5.655
  20
-3.789
  0
VERTEX
  8
F.Cu
  10
5.535
  20
-3.614
  0
VERTEX
  8
F.Cu
  10
5.4
  20
-3.451
  0
VERTEX
  8
F.Cu
  10
5.249
  20
-3.3
  0
VERTEX
  8
F.Cu
  10
5.086
  20
-3.165
  0
VERTEX
  8
F.Cu
  10
4.911
  20
-3.045
  0
VERTEX
  8
F.Cu
  10
4.725
  20
-2.941
  0
VERTEX
  8
F.Cu
  10
4.531
  20
-2.855
  0
VERTEX
  8
F.Cu
  10
4.329
  20
-2.788
  0
VERTEX
  8
F.Cu
  10
4.123
  20
-2.739
  0
VERTEX
  8
F.Cu
  10
3.912
  20
-2.71
  0
VERTEX
  8
F.Cu
  10
3.7
  20
-2.7
  0
SEQEND
  0
POLYLINE
  8
F.Cu
  70
1
  66
1
  0
VERTEX
  8
F.Cu
  10
5.4
  20
-5
  0
VERTEX
  8
F.Cu
  10
5.393
  20
-5.157
  0
VERTEX
  8
F.Cu
  10
5.371
  20
-5.312
  0
VERTEX
  8
F.Cu
  10
5.335
  20
-5.465
  0
VERTEX
  8
F.Cu
  10
5.285
  20
-5.614
  0
VERTEX
  8
F.Cu
  10
5.222
  20
-5.758
  0
VERTEX
  8
F.Cu
  10
5.145
  20
-5.895
  0
VERTEX
  8
F.Cu
  10
5.057
  20
-6.024
  0
VERTEX
  8
F.Cu
  10
4.956
  20
-6.145
  0
VERTEX
  8
F.Cu
  10
4.845
  20
-6.256
  0
VERTEX
  8
F.Cu
  10
4.724
  20
-6.357
  0
VERTEX
  8
F.Cu
  10
4.595
  20
-6.445
  0
VERTEX
  8
F.Cu
  10
4.458
  20
-6.522
  0
VERTEX
  8
F.Cu
  10
4.314
  20
-6.585
  0
VERTEX
  8
F.Cu
  10
4.165
  20
-6.635
  0
VERTEX
  8
F.Cu
  10
4.012
  20
-6.671
  0
VERTEX
  8
F.Cu
  10
3.857
  20
-6.693
  0
VERTEX
  8
F.Cu
  10
3.7
  20
-6.7
  0
VERTEX
  8
F.Cu
  10
3.7
  20
-7.3
  0
VERTEX
  8
F.Cu
  10
3.912
  20
-7.29
  0
VERTEX
  8
F.Cu
  10
4.123
  20
-7.261
  0
VERTEX
  8
F.Cu
  10
4.329
  20
-7.212
  0
VERTEX
  8
F.Cu
  10
4.531
  20
-7.145
  0
VERTEX
  8
F.Cu
  10
4.725
  20
-7.059
  0
VERTEX
  8
F.Cu
  10
4.911
  20
-6.955
  0
VERTEX
  8
F.Cu
  10
5.086
  20
-6.835
  0
VERTEX
  8
F.Cu
  10
5.249
  20
-6.7
  0
VERTEX
  8
F.Cu
  10
5.4
  20
-6.549
  0
VERTEX
  8
F.Cu
  10
5.535
  20
-6.386
  0
VERTEX
  8
F.Cu
  10
5.655
  20
-6.211
  0
VERTEX
  8
F.Cu
  10
5.759
  20
-6.025
  0
VERTEX
  8
F.Cu
  10
5.845
  20
-5.831
  0
VERTEX
  8
F.Cu
  10
5.912
  20
-5.629
  0
VERTEX
  8
F.Cu
  10
5.961
  20
-5.423
  0
VERTEX
  8
F.Cu
  10
5.99
  20
-5.212
  0
VERTEX
  8
F.Cu
  10
6
  20
-5
  0
SEQEND
  0
POLYLINE
  8
F.Cu
  70
1
  66
1
  0
VERTEX
  8
F.Cu
  10
3.7
  20
-6.7
  0
VERTEX
  8
F.Cu
  10
2.7
  20
-6.7
  0
VERTEX
  8
F.Cu
  10
2.7
  20
-7.3
  0
VERTEX
  8
F.Cu
  10
3.7
  20
-7.3
  0
SEQEND
  0
POLYLINE
  8
F.Cu
  70
1
  66
1
  0
VERTEX
  8
F.Cu
  10
1
  20
-9
  0
VERTEX
  8
F.Cu
  10
1.007
  20
-8.843
  0
VERTEX
  8
F.Cu
  10
1.029
  20
-8.688
  0
VERTEX
  8
F.Cu
  10
1.065
  20
-8.535
  0
VERTEX
  8
F.Cu
  10
1.115
  20
-8.386
  0
VERTEX
  8
F.Cu
  10
1.178
  20
-8.242
  0
VERTEX
  8
F.Cu
  10
1.255
  20
-8.105
  0
VERTEX
  8
F.Cu
  10
1.343
  20
-7.976
  0
VERTEX
  8
F.Cu
  10
1.444
  20
-7.855
  0
VERTEX
  8
F.Cu
  10
1.555
  20
-7.744
  0
VERTEX
  8
F.Cu
  10
1.676
  20
-7.643
  0
VERTEX
  8
F.Cu
  10
1.805
  20
-7.555
  0
VERTEX
  8
F.Cu
  10
1.942
  20
-7.478
  0
VERTEX
  8
F.Cu
  10
2.086
  20
-7.415
  0
VERTEX
  8
F.Cu
  10
2.235
  20
-7.365
  0
VERTEX
  8
F.Cu
  10
2.388
  20
-7.329
  0
VERTEX
  8
F.Cu
  10
2.543
  20
-7.307
  0
VERTEX
  8
F.Cu
  10
2.7
  20
-7.3
  0
VERTEX
  8
F.Cu
  10
2.7
  20
-6.7
  0
VERTEX
  8
F.Cu
  10
2.488
  20
-6.71
  0
VERTEX
  8
F.Cu
  10
2.277
  20
-6.739
  0
VERTEX
  8
F.Cu
  10
2.071
  20
-6.788
  0
VERTEX
  8
F.Cu
  10
1.869
  20
-6.855
  0
VERTEX
  8
F.Cu
  10
1.675
  20
-6.941
  0
VERTEX
  8
F.Cu
  10
1.489
  20
-7.045
  0
VERTEX
  8
F.Cu
  10
1.314
  20
-7.165
  0
VERTEX
  8
F.Cu
  10
1.151
  20
-7.3
  0
VERTEX
  8
F.Cu
  10
1
  20
-7.451
  0
VERTEX
  8
F.Cu
  10
0.865
  20
-7.614
  0
VERTEX
  8
F.Cu
  10
0.745
  20
-7.789
  0
VERTEX
  8
F.Cu
  10
0.641
  20
-7.975
  0
VERTEX
  8
F.Cu
  10
0.555
  20
-8.169
  0
VERTEX
  8
F.Cu
  10
0.488
  20
-8.371
  0
VERTEX
  8
F.Cu
  10
0.439
  20
-8.577
  0
VERTEX
  8
F.Cu
  10
0.41
  20
-8.788
  0
VERTEX
  8
F.Cu
  10
0.4
  20
-9
  0
SEQEND
  0
ENDBLK
  0
BLOCK
  2
Device
  3
Device
  10
0
  20
0
  70
0
  0
INSERT
  8
Default
  2
SMTgqm15
  10
-4.02
  20
12.24
  50
0
  41
1
  42
1
  0
INSERT
  8
Default
  2
0402
  10
-3.02
  20
11.94
  50
180
  41
1
  42
1
  0
INSERT
  8
Default
  2
0603
  10
-0.42
  20
10.79
  50
270
  41
1
  42
1
  0
INSERT
  8
Default
  2
Wolfspeed_Flange
  10
3.7
  20
12.04
  50
90
  41
1
  42
1
  0
INSERT
  8
Default
  2
Out_Match
  10
7.78
  20
11.09
  50
0
  41
1
  42
1
  0
INSERT
  8
Default
  2
SMTgqm18
  10
-2.42
  20
11.69
  50
0
  41
1
  42
1
  0
INSERT
  8
Default
  2
SMTgqm15
  10
-5.37
  20
11.59
  50
270
  41
1
  42
1
  0
INSERT
  8
Default
  2
SMTgqm18
  10
-6.52
  20
5.39
  50
270
  41
1
  42
1
  0
INSERT
  8
Default
  2
SMTgqm15
  10
-7.47
  20
11.59
  50
270
  41
1
  42
1
  0
POLYLINE
  8
F.Cu
  70
1
  66
1
  0
VERTEX
  8
F.Cu
  10
0.48
  20
11.09
  0
VERTEX
  8
F.Cu
  10
1.48
  20
11.09
  0
VERTEX
  8
F.Cu
  10
1.48
  20
13.09
  0
VERTEX
  8
F.Cu
  10
0.48
  20
13.09
  0
SEQEND
  0
POLYLINE
  8
F.Cu
  70
1
  66
1
  0
VERTEX
  8
F.Cu
  10
-0.52
  20
11.09
  0
VERTEX
  8
F.Cu
  10
-0.52
  20
10.49
  0
VERTEX
  8
F.Cu
  10
0.48
  20
10.49
  0
VERTEX
  8
F.Cu
  10
0.48
  20
11.09
  0
SEQEND
  0
POLYLINE
  8
F.Cu
  70
1
  66
1
  0
VERTEX
  8
F.Cu
  10
-0.52
  20
11.09
  0
VERTEX
  8
F.Cu
  10
-0.52
  20
13.09
  0
VERTEX
  8
F.Cu
  10
0.48
  20
13.09
  0
VERTEX
  8
F.Cu
  10
0.48
  20
11.09
  0
SEQEND
  0
POLYLINE
  8
F.Cu
  70
1
  66
1
  0
VERTEX
  8
F.Cu
  10
-1.12
  20
11.59
  0
VERTEX
  8
F.Cu
  10
-0.52
  20
11.59
  0
VERTEX
  8
F.Cu
  10
-0.52
  20
12.59
  0
VERTEX
  8
F.Cu
  10
-1.12
  20
12.59
  0
SEQEND
  0
POLYLINE
  8
F.Cu
  70
1
  66
1
  0
VERTEX
  8
F.Cu
  10
-3.22
  20
11.39
  0
VERTEX
  8
F.Cu
  10
-2.72
  20
11.39
  0
VERTEX
  8
F.Cu
  10
-2.72
  20
12.79
  0
VERTEX
  8
F.Cu
  10
-3.22
  20
12.79
  0
SEQEND
  0
POLYLINE
  8
F.Cu
  70
1
  66
1
  0
VERTEX
  8
F.Cu
  10
-2.72
  20
11.59
  0
VERTEX
  8
F.Cu
  10
-2.12
  20
11.59
  0
VERTEX
  8
F.Cu
  10
-2.12
  20
12.59
  0
VERTEX
  8
F.Cu
  10
-2.72
  20
12.59
  0
SEQEND
  0
POLYLINE
  8
F.Cu
  70
1
  66
1
  0
VERTEX
  8
F.Cu
  10
-3.82
  20
11.99
  0
VERTEX
  8
F.Cu
  10
-4.12
  20
11.99
  0
VERTEX
  8
F.Cu
  10
-4.12
  20
11.39
  0
VERTEX
  8
F.Cu
  10
-3.82
  20
11.39
  0
SEQEND
  0
POLYLINE
  8
F.Cu
  70
1
  66
1
  0
VERTEX
  8
F.Cu
  10
-4.32
  20
12.19
  0
VERTEX
  8
F.Cu
  10
-4.32
  20
12.79
  0
VERTEX
  8
F.Cu
  10
-4.12
  20
12.79
  0
VERTEX
  8
F.Cu
  10
-4.12
  20
12.19
  0
SEQEND
  0
POLYLINE
  8
F.Cu
  70
1
  66
1
  0
VERTEX
  8
F.Cu
  10
-4.32
  20
12.19
  0
VERTEX
  8
F.Cu
  10
-4.32
  20
11.99
  0
VERTEX
  8
F.Cu
  10
-4.12
  20
11.99
  0
VERTEX
  8
F.Cu
  10
-4.12
  20
12.19
  0
SEQEND
  0
POLYLINE
  8
F.Cu
  70
1
  66
1
  0
VERTEX
  8
F.Cu
  10
-3.82
  20
12.79
  0
VERTEX
  8
F.Cu
  10
-4.12
  20
12.79
  0
VERTEX
  8
F.Cu
  10
-4.12
  20
12.19
  0
VERTEX
  8
F.Cu
  10
-3.82
  20
12.19
  0
SEQEND
  0
POLYLINE
  8
F.Cu
  70
1
  66
1
  0
VERTEX
  8
F.Cu
  10
-0.52
  20
9.49
  0
VERTEX
  8
F.Cu
  10
-0.52
  20
8.89
  0
VERTEX
  8
F.Cu
  10
0.48
  20
8.89
  0
VERTEX
  8
F.Cu
  10
0.48
  20
9.49
  0
SEQEND
  0
POLYLINE
  8
F.Cu
  70
1
  66
1
  0
VERTEX
  8
F.Cu
  10
-4.82
  20
7.69
  0
VERTEX
  8
F.Cu
  10
-4.82
  20
6.69
  0
VERTEX
  8
F.Cu
  10
-4.62
  20
6.69
  0
VERTEX
  8
F.Cu
  10
-4.62
  20
7.69
  0
SEQEND
  0
POLYLINE
  8
F.Cu
  70
1
  66
1
  0
VERTEX
  8
F.Cu
  10
-4.12
  20
11.99
  0
VERTEX
  8
F.Cu
  10
-4.12
  20
11.39
  0
VERTEX
  8
F.Cu
  10
-4.32
  20
11.39
  0
VERTEX
  8
F.Cu
  10
-4.32
  20
11.99
  0
SEQEND
  0
POLYLINE
  8
F.Cu
  70
1
  66
1
  0
VERTEX
  8
F.Cu
  10
-4.32
  20
11.99
  0
VERTEX
  8
F.Cu
  10
-4.82
  20
11.99
  0
VERTEX
  8
F.Cu
  10
-4.82
  20
11.39
  0
VERTEX
  8
F.Cu
  10
-4.32
  20
11.39
  0
SEQEND
  0
POLYLINE
  8
F.Cu
  70
1
  66
1
  0
VERTEX
  8
F.Cu
  10
-5.42
  20
11.39
  0
VERTEX
  8
F.Cu
  10
-5.42
  20
11.99
  0
VERTEX
  8
F.Cu
  10
-4.82
  20
11.99
  0
VERTEX
  8
F.Cu
  10
-4.82
  20
11.39
  0
SEQEND
  0
POLYLINE
  8
F.Cu
  70
1
  66
1
  0
VERTEX
  8
F.Cu
  10
-5.42
  20
11.99
  0
VERTEX
  8
F.Cu
  10
-6.92
  20
11.99
  0
VERTEX
  8
F.Cu
  10
-6.92
  20
11.39
  0
VERTEX
  8
F.Cu
  10
-5.42
  20
11.39
  0
SEQEND
  0
POLYLINE
  8
F.Cu
  70
1
  66
1
  0
VERTEX
  8
F.Cu
  10
-7.52
  20
11.39
  0
VERTEX
  8
F.Cu
  10
-7.52
  20
11.99
  0
VERTEX
  8
F.Cu
  10
-6.92
  20
11.99
  0
VERTEX
  8
F.Cu
  10
-6.92
  20
11.39
  0
SEQEND
  0
POLYLINE
  8
F.Cu
  70
1
  66
1
  0
VERTEX
  8
F.Cu
  10
-7.52
  20
11.99
  0
VERTEX
  8
F.Cu
  10
-9.52
  20
11.99
  0
VERTEX
  8
F.Cu
  10
-9.52
  20
11.39
  0
VERTEX
  8
F.Cu
  10
-7.52
  20
11.39
  0
SEQEND
  0
POLYLINE
  8
F.Cu
  70
1
  66
1
  0
VERTEX
  8
F.Cu
  10
-0.12
  20
8.89
  0
VERTEX
  8
F.Cu
  10
-0.12
  20
7.89
  0
VERTEX
  8
F.Cu
  10
0.08
  20
7.89
  0
VERTEX
  8
F.Cu
  10
0.08
  20
8.89
  0
SEQEND
  0
POLYLINE
  8
F.Cu
  70
1
  66
1
  0
VERTEX
  8
F.Cu
  10
0.08
  20
7.89
  0
VERTEX
  8
F.Cu
  10
0.08
  20
7.69
  0
VERTEX
  8
F.Cu
  10
-0.12
  20
7.69
  0
VERTEX
  8
F.Cu
  10
-0.12
  20
7.89
  0
SEQEND
  0
POLYLINE
  8
F.Cu
  70
1
  66
1
  0
VERTEX
  8
F.Cu
  10
-0.12
  20
7.89
  0
VERTEX
  8
F.Cu
  10
-4.62
  20
7.89
  0
VERTEX
  8
F.Cu
  10
-4.62
  20
7.69
  0
VERTEX
  8
F.Cu
  10
-0.12
  20
7.69
  0
SEQEND
  0
POLYLINE
  8
F.Cu
  70
1
  66
1
  0
VERTEX
  8
F.Cu
  10
-4.82
  20
7.69
  0
VERTEX
  8
F.Cu
  10
-4.82
  20
7.89
  0
VERTEX
  8
F.Cu
  10
-4.62
  20
7.89
  0
VERTEX
  8
F.Cu
  10
-4.62
  20
7.69
  0
SEQEND
  0
POLYLINE
  8
F.Cu
  70
1
  66
1
  0
VERTEX
  8
F.Cu
  10
-0.12
  20
6.69
  0
VERTEX
  8
F.Cu
  10
-4.62
  20
6.69
  0
VERTEX
  8
F.Cu
  10
-4.62
  20
6.49
  0
VERTEX
  8
F.Cu
  10
-0.12
  20
6.49
  0
SEQEND
  0
POLYLINE
  8
F.Cu
  70
1
  66
1
  0
VERTEX
  8
F.Cu
  10
-4.62
  20
6.49
  0
VERTEX
  8
F.Cu
  10
-4.82
  20
6.49
  0
VERTEX
  8
F.Cu
  10
-4.82
  20
6.69
  0
VERTEX
  8
F.Cu
  10
-4.62
  20
6.69
  0
SEQEND
  0
POLYLINE
  8
F.Cu
  70
1
  66
1
  0
VERTEX
  8
F.Cu
  10
0.08
  20
5.49
  0
VERTEX
  8
F.Cu
  10
0.08
  20
5.29
  0
VERTEX
  8
F.Cu
  10
-0.12
  20
5.29
  0
VERTEX
  8
F.Cu
  10
-0.12
  20
5.49
  0
SEQEND
  0
POLYLINE
  8
F.Cu
  70
1
  66
1
  0
VERTEX
  8
F.Cu
  10
-0.12
  20
6.69
  0
VERTEX
  8
F.Cu
  10
0.08
  20
6.69
  0
VERTEX
  8
F.Cu
  10
0.08
  20
6.49
  0
VERTEX
  8
F.Cu
  10
-0.12
  20
6.49
  0
SEQEND
  0
POLYLINE
  8
F.Cu
  70
1
  66
1
  0
VERTEX
  8
F.Cu
  10
0.08
  20
5.49
  0
VERTEX
  8
F.Cu
  10
0.08
  20
6.49
  0
VERTEX
  8
F.Cu
  10
-0.12
  20
6.49
  0
VERTEX
  8
F.Cu
  10
-0.12
  20
5.49
  0
SEQEND
  0
POLYLINE
  8
F.Cu
  70
1
  66
1
  0
VERTEX
  8
F.Cu
  10
-0.12
  20
5.49
  0
VERTEX
  8
F.Cu
  10
-5.62
  20
5.49
  0
VERTEX
  8
F.Cu
  10
-5.62
  20
5.29
  0
VERTEX
  8
F.Cu
  10
-0.12
  20
5.29
  0
SEQEND
  0
POLYLINE
  8
F.Cu
  70
1
  66
1
  0
VERTEX
  8
F.Cu
  10
-6.62
  20
5.09
  0
VERTEX
  8
F.Cu
  10
-6.62
  20
5.69
  0
VERTEX
  8
F.Cu
  10
-5.62
  20
5.69
  0
VERTEX
  8
F.Cu
  10
-5.62
  20
5.09
  0
SEQEND
  0
POLYLINE
  8
F.Cu
  70
1
  66
1
  0
VERTEX
  8
F.Cu
  10
-6.62
  20
5.69
  0
VERTEX
  8
F.Cu
  10
-8.62
  20
5.69
  0
VERTEX
  8
F.Cu
  10
-8.62
  20
5.09
  0
VERTEX
  8
F.Cu
  10
-6.62
  20
5.09
  0
SEQEND
  0
ENDBLK
  0
ENDSEC
  0
SECTION
  2
ENTITIES
  0
INSERT
  8
Default
  2
Device
  10
0
  20
0
  50
0
  41
1
  42
1
  0
ENDSEC
  0
EOF
